<?xml version="1.0" standalone="no"?>
<!DOCTYPE svg PUBLIC "-//W3C//DTD SVG 20010904//EN"
 "http://www.w3.org/TR/2001/REC-SVG-20010904/DTD/svg10.dtd">
<svg version="1.0" xmlns="http://www.w3.org/2000/svg"
 width="531.000000pt" height="531.000000pt" viewBox="0 0 531.000000 531.000000"
 preserveAspectRatio="xMidYMid meet">
<metadata>
Created by potrace 1.14, written by Peter Selinger 2001-2017
</metadata>
<g transform="translate(0.000000,531.000000) scale(0.100000,-0.100000)"
fill="#000000" stroke="none">
<path d="M2225 4930 c-2 -3 -24 -5 -49 -4 -25 1 -46 -2 -46 -6 0 -4 -13 -6
-30 -4 -16 2 -30 0 -30 -5 0 -5 -13 -7 -30 -5 -16 2 -30 0 -30 -5 0 -4 -11 -7
-25 -6 -14 2 -28 -1 -31 -6 -3 -6 -15 -7 -26 -3 -11 3 -18 2 -15 -2 5 -8 -11
-12 -65 -14 -10 -1 -18 -6 -18 -12 0 -5 -7 -8 -15 -4 -8 3 -15 1 -15 -4 0 -5
-7 -7 -15 -4 -8 4 -15 1 -15 -7 0 -7 -3 -9 -7 -6 -3 4 -13 1 -21 -6 -13 -10
-14 -9 -8 1 6 10 1 10 -22 -2 -16 -8 -32 -12 -36 -9 -3 4 -6 1 -6 -5 0 -7 -3
-11 -7 -10 -18 4 -93 -24 -88 -32 4 -6 -1 -7 -11 -3 -11 4 -15 3 -11 -4 5 -7
0 -9 -13 -6 -12 3 -20 0 -20 -6 0 -7 -4 -10 -9 -6 -5 3 -16 -1 -24 -9 -8 -8
-17 -12 -21 -9 -3 4 -6 1 -6 -5 0 -7 -3 -11 -7 -11 -22 4 -33 -2 -27 -13 5 -8
2 -9 -9 -5 -10 3 -17 3 -17 -2 0 -4 -6 -8 -12 -8 -21 -1 -99 -49 -91 -57 4 -4
-1 -4 -11 0 -15 6 -17 4 -11 -6 5 -9 4 -11 -4 -6 -6 4 -18 0 -27 -8 -8 -9 -22
-16 -29 -16 -8 0 -17 -5 -21 -12 -5 -7 -3 -8 6 -3 8 5 11 4 6 -3 -4 -6 -13 -9
-21 -6 -8 4 -18 -1 -21 -10 -3 -9 -10 -14 -15 -11 -4 3 -13 -4 -19 -15 -6 -11
-15 -18 -21 -15 -5 4 -9 1 -9 -4 0 -6 -4 -11 -10 -11 -17 0 -49 -33 -43 -43 4
-6 0 -8 -9 -4 -10 3 -23 -3 -34 -18 -10 -13 -21 -22 -24 -20 -9 6 -55 -47 -52
-59 2 -5 -3 -6 -10 -3 -14 5 -40 -17 -31 -27 4 -3 1 -6 -6 -6 -14 0 -131 -115
-131 -129 0 -5 -7 -12 -16 -15 -9 -3 -12 -11 -8 -18 4 -7 4 -10 0 -6 -10 8
-47 -23 -40 -34 3 -4 0 -8 -6 -8 -6 0 -8 -5 -4 -12 4 -6 3 -8 -3 -5 -15 9 -36
-19 -27 -35 4 -7 4 -10 -1 -6 -7 7 -38 -17 -33 -26 2 -3 -6 -11 -16 -19 -10
-8 -16 -19 -12 -25 3 -6 1 -14 -5 -18 -8 -5 -9 -3 -4 7 8 12 6 12 -8 0 -9 -7
-15 -17 -12 -21 3 -4 -2 -11 -11 -14 -8 -3 -12 -10 -9 -16 3 -6 -1 -13 -10
-16 -9 -4 -14 -13 -11 -21 4 -9 2 -11 -6 -7 -8 5 -9 2 -5 -10 4 -9 3 -15 -2
-12 -5 3 -14 -8 -21 -24 -7 -17 -17 -30 -22 -30 -6 0 -7 -7 -4 -16 4 -10 2
-13 -6 -8 -8 5 -9 2 -5 -10 4 -9 3 -15 -2 -12 -11 7 -23 -22 -14 -36 3 -7 1
-8 -5 -4 -11 6 -16 -6 -13 -26 0 -5 -4 -8 -10 -8 -6 0 -8 -7 -5 -16 4 -10 2
-13 -6 -8 -8 5 -9 2 -5 -10 4 -10 3 -15 -3 -11 -9 6 -14 -8 -11 -27 0 -5 -4
-8 -10 -8 -5 0 -7 -4 -4 -10 3 -5 1 -10 -5 -10 -7 0 -10 -7 -7 -15 4 -8 2 -17
-4 -20 -5 -4 -6 -11 -3 -17 4 -6 2 -8 -4 -4 -13 8 -26 -29 -16 -45 5 -8 3 -9
-6 -4 -10 6 -12 4 -7 -8 4 -10 2 -17 -4 -17 -6 0 -8 -7 -5 -16 4 -10 2 -13 -6
-8 -7 5 -9 2 -5 -9 3 -9 1 -17 -5 -19 -5 -2 -11 -18 -11 -36 -1 -18 -6 -32
-11 -32 -4 0 -6 -9 -3 -20 3 -13 1 -18 -6 -13 -6 4 -8 0 -4 -10 4 -10 2 -17
-4 -17 -6 0 -9 -7 -6 -15 4 -8 2 -17 -4 -20 -5 -4 -7 -11 -3 -16 3 -5 1 -15
-4 -22 -5 -7 -8 -22 -7 -34 1 -13 -3 -23 -8 -23 -5 0 -6 -7 -3 -16 4 -9 1 -23
-5 -30 -6 -7 -8 -18 -4 -24 7 -11 1 -12 -90 -14 l-60 -1 0 -395 0 -395 72 0
c72 0 73 0 80 -30 4 -16 6 -36 4 -44 -1 -7 2 -10 7 -7 5 3 8 -7 6 -24 -2 -16
1 -32 6 -35 5 -3 6 -13 3 -22 -4 -10 -2 -14 4 -10 6 4 9 -3 7 -18 -1 -14 2
-25 7 -25 4 0 5 -7 2 -17 -4 -9 -2 -14 3 -10 5 3 10 -2 11 -11 3 -43 8 -62 15
-62 4 0 5 -7 2 -15 -4 -8 -1 -15 6 -15 7 0 10 -6 7 -13 -3 -7 1 -21 9 -31 7
-11 11 -23 8 -27 -3 -5 -1 -9 5 -9 6 0 8 -7 5 -15 -4 -8 -1 -15 6 -15 6 0 8
-5 5 -10 -3 -6 0 -13 8 -16 9 -3 13 -13 9 -26 -3 -14 -1 -19 6 -14 8 5 10 2 6
-8 -4 -10 -1 -16 7 -16 7 0 9 -3 6 -7 -4 -3 1 -12 11 -20 9 -8 11 -12 5 -8 -9
4 -11 1 -7 -9 3 -9 11 -16 17 -16 6 0 7 -3 4 -7 -4 -3 1 -12 11 -20 9 -8 11
-12 4 -8 -10 5 -10 1 -1 -19 7 -14 16 -23 20 -20 5 3 6 -3 2 -12 -4 -12 -3
-15 5 -10 8 5 10 2 6 -8 -3 -9 -1 -16 6 -16 6 0 9 -4 6 -9 -3 -5 1 -12 10 -15
8 -3 12 -10 9 -16 -3 -5 -1 -10 4 -10 6 0 10 -3 9 -7 -3 -15 14 -43 23 -37 5
3 6 -2 3 -10 -3 -9 -1 -16 4 -16 6 0 14 -9 17 -20 4 -11 11 -17 17 -14 7 4 8
2 4 -4 -4 -7 -2 -17 4 -24 6 -7 18 -22 26 -33 9 -11 12 -14 8 -6 -5 10 -3 12
5 7 7 -5 10 -14 7 -21 -6 -16 17 -38 29 -27 5 4 5 1 1 -5 -4 -8 -2 -13 5 -13
7 0 10 -3 6 -6 -3 -3 3 -16 13 -28 11 -11 32 -36 48 -53 16 -18 33 -29 37 -25
5 4 5 1 1 -6 -5 -8 23 -42 75 -95 46 -45 85 -82 89 -82 3 0 19 -15 37 -33 19
-21 37 -31 44 -26 7 4 9 3 6 -3 -3 -5 3 -17 14 -26 10 -9 19 -14 19 -11 0 3
11 -7 25 -22 14 -15 25 -23 25 -18 0 5 5 1 11 -8 5 -10 15 -18 20 -18 6 0 17
-6 24 -12 33 -29 45 -38 45 -33 0 3 10 -3 22 -15 12 -11 28 -20 35 -20 7 0 13
-5 13 -11 0 -5 5 -7 10 -4 6 3 10 1 10 -5 0 -7 7 -10 15 -6 8 3 14 0 12 -7 -1
-7 4 -11 11 -10 6 2 12 -1 12 -7 0 -5 7 -6 17 -3 10 4 14 2 10 -4 -6 -9 10
-18 37 -21 5 0 12 -4 15 -9 8 -11 63 -37 74 -35 4 1 7 -3 7 -9 0 -6 7 -8 16
-5 8 3 12 2 9 -4 -6 -10 3 -13 37 -13 10 0 16 -3 13 -7 -2 -4 7 -12 21 -19 20
-9 24 -9 18 1 -4 7 2 5 14 -6 12 -10 28 -16 37 -12 9 3 13 2 10 -4 -6 -10 76
-35 107 -34 10 1 15 -3 11 -9 -4 -6 0 -8 10 -4 10 4 17 2 17 -4 0 -6 7 -9 15
-5 8 3 15 1 15 -4 0 -5 8 -9 18 -9 43 -2 62 -6 62 -12 0 -4 11 -6 25 -4 14 1
25 -2 25 -7 0 -5 6 -8 13 -5 6 2 20 0 31 -5 14 -8 17 -7 10 4 -6 11 -5 11 9
-1 9 -7 17 -10 17 -6 0 4 6 3 13 -3 7 -6 30 -10 50 -8 21 2 34 0 31 -5 -3 -6
14 -8 40 -6 25 2 46 0 46 -3 0 -3 99 -6 220 -6 121 0 220 2 220 5 0 4 19 6 43
5 23 -1 47 1 52 5 10 6 53 11 93 11 13 0 21 4 18 9 -4 5 2 7 13 4 10 -3 21 0
25 5 3 5 19 8 36 6 17 -2 29 0 26 4 -4 6 14 10 67 12 9 1 17 5 17 9 0 4 6 8
13 8 6 0 32 6 57 13 25 8 48 13 53 12 4 -1 7 3 7 9 0 5 4 8 9 4 6 -3 26 4 45
15 20 11 38 20 41 20 3 0 12 0 21 0 8 0 12 4 9 10 -3 6 1 7 9 4 10 -4 16 -1
16 7 0 7 3 10 6 6 4 -3 21 1 38 10 17 10 33 17 36 18 3 0 39 18 80 40 41 22
78 40 82 40 4 0 14 9 23 20 9 11 14 14 10 8 -9 -18 1 -16 21 5 10 9 20 17 23
18 19 3 40 17 35 25 -3 5 1 6 9 4 7 -3 27 7 43 22 16 15 33 28 37 28 4 0 12 7
17 15 5 8 10 12 10 8 0 -4 9 0 19 9 11 9 17 21 14 26 -4 6 -1 7 6 2 14 -8 54
29 43 41 -4 4 -1 4 6 0 14 -9 44 18 34 30 -4 5 -3 6 2 2 11 -9 38 11 31 22 -3
4 3 7 13 6 9 0 16 5 15 11 -2 7 3 12 10 10 6 -1 11 4 9 11 -1 8 2 11 7 8 5 -3
15 2 22 11 10 12 10 14 2 9 -7 -4 -13 -5 -13 -1 0 3 12 10 26 15 14 6 22 15
19 20 -4 6 -1 9 7 8 7 -2 12 3 11 9 -2 7 3 12 10 10 6 -1 11 4 9 11 -1 8 2 11
7 8 13 -8 34 21 25 35 -4 7 -3 10 2 7 12 -8 35 18 26 28 -4 5 -3 6 2 2 11 -10
38 11 30 23 -3 5 0 9 6 9 6 0 8 5 4 12 -4 6 -3 8 3 5 14 -9 37 19 27 34 -4 7
-3 9 3 6 13 -8 67 59 58 72 -3 5 0 13 6 17 8 5 9 3 4 -7 -8 -12 -6 -12 8 0 9
7 15 17 12 21 -3 4 2 10 10 14 8 3 12 12 9 21 -4 10 -2 15 7 13 8 -2 13 4 13
14 -1 10 3 15 9 11 6 -4 8 0 4 11 -4 9 -3 15 2 12 10 -7 25 22 22 42 -1 7 4
11 11 10 7 -2 12 3 11 10 -2 6 2 12 8 12 5 0 7 4 4 10 -3 5 -1 10 5 10 7 0 9
7 6 15 -3 9 1 18 10 22 8 3 13 12 10 20 -4 9 -2 11 6 7 8 -5 9 -2 5 10 -4 9
-3 15 1 12 5 -3 16 11 26 30 11 24 12 33 4 28 -7 -4 -3 3 10 15 23 23 30 37
11 25 -6 -3 1 12 16 35 14 23 23 46 20 51 -4 6 -1 10 5 10 6 0 10 6 8 13 -1 6
3 22 10 35 7 12 10 27 7 32 -3 6 -1 10 5 10 7 0 9 7 6 16 -4 10 -2 13 6 8 8
-5 9 1 4 20 -4 18 -3 25 4 21 6 -4 10 4 10 19 0 14 5 28 11 32 6 3 9 15 6 25
-3 11 -1 19 3 19 5 0 7 8 5 18 -1 9 2 23 7 29 6 7 8 20 4 28 -3 8 -1 15 5 15
5 0 7 11 5 25 -3 14 -1 25 4 25 4 0 7 11 5 25 -1 14 1 25 6 25 4 0 7 16 5 36
-1 19 1 37 5 39 4 3 6 23 5 45 -1 22 1 40 4 40 4 0 6 47 6 105 -1 58 3 105 8
105 5 0 4 6 -1 13 -5 6 -8 54 -7 105 0 51 -2 95 -6 97 -4 2 -5 27 -3 55 1 28
-1 49 -6 46 -4 -3 -7 12 -5 34 2 22 -1 42 -6 45 -5 3 -7 14 -5 25 2 11 0 20
-4 20 -5 0 -6 12 -3 26 3 15 1 24 -4 21 -5 -3 -9 7 -8 21 1 15 -1 32 -5 37 -3
6 -7 21 -9 35 -2 14 -7 26 -12 28 -4 2 -5 12 -2 24 3 13 1 19 -5 15 -7 -5 -9
1 -5 15 3 13 1 19 -5 15 -6 -4 -8 4 -5 20 4 19 2 24 -8 18 -9 -5 -10 -2 -5 15
4 14 3 20 -3 16 -5 -3 -10 0 -9 7 1 31 -4 48 -12 43 -5 -4 -7 4 -3 16 3 14 1
19 -6 14 -7 -4 -10 1 -7 14 2 11 -1 20 -7 20 -6 0 -8 3 -5 6 4 4 -3 20 -15 37
-12 17 -17 27 -10 23 8 -5 10 -2 6 8 -3 9 -11 16 -17 16 -6 0 -7 3 -4 7 4 3
-1 12 -11 20 -9 8 -11 12 -5 8 9 -4 11 -1 7 9 -3 9 -10 16 -16 16 -5 0 -7 4
-4 9 3 5 -1 12 -10 15 -8 3 -13 10 -10 15 9 14 -5 42 -17 34 -6 -4 -7 -1 -3 6
5 7 0 19 -10 27 -11 9 -13 13 -7 9 8 -4 11 -1 7 9 -3 8 -12 17 -20 20 -9 3
-12 10 -9 16 3 5 1 10 -4 10 -6 0 -10 6 -9 13 2 6 -2 11 -9 10 -7 -2 -10 4 -7
12 4 8 1 15 -6 15 -6 0 -8 5 -5 10 3 6 1 10 -4 10 -6 0 -11 7 -11 15 0 7 -8
19 -17 24 -10 6 -14 11 -10 11 4 0 2 6 -5 14 -7 8 -16 12 -20 9 -4 -2 -5 2 -3
9 3 7 -13 34 -34 58 -60 68 -61 69 -61 76 0 5 -19 26 -42 47 -24 22 -36 36
-28 32 8 -5 -14 21 -49 56 -36 35 -69 63 -75 61 -6 -2 -8 -1 -4 3 10 11 -29
48 -41 40 -7 -4 -10 -1 -9 7 2 7 -3 12 -10 10 -8 -1 -11 2 -8 6 3 5 -4 18 -16
28 -15 13 -19 14 -14 4 4 -8 0 -6 -9 5 -9 11 -21 19 -26 17 -5 -1 -8 3 -7 10
2 7 -3 12 -9 13 -7 0 -20 10 -28 23 -9 12 -22 22 -29 22 -8 0 -19 7 -26 15 -7
8 -16 12 -21 9 -5 -3 -8 0 -7 8 2 7 -3 12 -9 11 -7 -2 -13 1 -13 7 0 5 -19 19
-42 31 -24 12 -46 26 -49 32 -4 5 -12 6 -19 2 -9 -6 -11 -4 -5 5 6 10 4 12 -9
7 -9 -4 -15 -3 -12 2 5 8 -42 36 -56 33 -5 -1 -8 2 -8 8 0 5 -7 6 -17 3 -10
-4 -14 -2 -10 4 6 10 -27 27 -45 24 -5 -1 -8 4 -8 10 0 5 -4 7 -10 4 -5 -3
-10 -1 -10 5 0 6 -4 9 -9 5 -5 -3 -12 -1 -16 5 -4 6 -11 7 -17 4 -6 -4 -8 -2
-5 3 8 12 -20 26 -34 17 -5 -3 -9 -2 -9 3 0 11 -51 34 -61 27 -5 -3 -9 0 -9 7
0 6 -8 9 -20 6 -11 -3 -18 -1 -15 3 5 8 -51 26 -67 22 -5 -1 -8 3 -8 8 0 6
-11 8 -25 6 -14 -3 -23 -1 -20 5 4 5 -1 10 -9 10 -25 2 -30 4 -45 13 -11 7
-12 6 -6 -5 7 -11 6 -12 -7 -2 -8 7 -18 10 -21 6 -4 -3 -7 -1 -7 6 0 7 -10 10
-25 7 -14 -3 -23 -1 -20 4 3 5 -3 9 -12 9 -46 2 -91 8 -101 15 -7 4 -16 4 -22
1 -5 -3 -10 -2 -10 4 0 5 -18 9 -40 7 -22 -2 -37 1 -34 6 3 4 -17 7 -45 5 -28
-1 -51 0 -51 3 0 9 -420 8 -425 0z m405 -402 c0 -5 18 -7 40 -5 22 2 40 -1 40
-5 0 -5 14 -7 30 -4 17 2 30 0 30 -4 0 -5 14 -7 30 -5 20 3 28 0 24 -7 -5 -7
3 -9 24 -6 19 3 29 0 25 -5 -4 -6 3 -8 15 -5 12 4 22 2 22 -4 0 -6 7 -8 15 -5
8 4 17 2 21 -4 3 -5 15 -7 26 -3 14 4 18 2 14 -5 -4 -6 -1 -11 6 -12 7 0 22
-3 33 -5 11 -3 26 -6 33 -6 6 -1 12 -6 12 -11 0 -5 9 -7 20 -4 11 3 18 1 14
-4 -5 -9 4 -12 38 -12 10 0 15 -3 13 -7 -3 -4 2 -11 11 -14 10 -4 13 -2 8 7
-4 6 2 4 13 -6 11 -9 23 -14 26 -10 4 3 7 1 7 -6 0 -7 5 -9 10 -6 6 3 10 1 10
-5 0 -6 5 -8 10 -5 6 3 10 1 10 -5 0 -7 7 -9 16 -6 10 4 13 2 8 -6 -5 -8 -2
-9 10 -5 10 4 15 3 11 -3 -3 -6 -1 -10 4 -10 20 0 26 -3 39 -19 11 -13 12 -13
7 -1 -4 10 -2 9 8 -2 8 -10 17 -15 20 -11 4 3 7 0 7 -7 0 -7 3 -11 6 -7 6 5
15 0 49 -31 8 -7 15 -11 15 -7 0 3 12 -6 27 -20 15 -14 36 -25 46 -25 10 0 15
-4 12 -10 -3 -5 -2 -10 4 -10 6 0 19 -9 30 -21 12 -13 25 -18 33 -13 7 4 10 4
6 -1 -10 -11 43 -56 56 -48 6 3 8 3 4 -1 -8 -10 23 -47 34 -40 5 3 7 0 6 -8
-2 -7 3 -12 9 -11 7 2 12 -3 10 -10 -1 -6 5 -11 13 -9 8 2 12 1 8 -3 -8 -8
102 -121 115 -117 5 1 5 -2 2 -8 -4 -6 5 -22 19 -35 15 -14 26 -27 26 -30 -1
-11 28 -34 34 -27 4 3 4 -1 0 -11 -3 -9 -1 -17 4 -17 6 0 14 -9 17 -20 4 -11
11 -18 16 -15 5 3 6 -1 3 -9 -3 -9 -1 -16 4 -16 6 0 14 -9 17 -20 4 -11 10
-18 15 -15 4 3 7 -3 6 -13 0 -9 5 -16 12 -14 8 1 10 -2 7 -8 -4 -6 1 -20 12
-32 10 -11 18 -23 18 -27 0 -3 3 -5 7 -4 4 2 4 -5 1 -14 -4 -11 -3 -14 5 -9 8
5 10 1 5 -10 -4 -12 -3 -15 5 -10 8 5 10 2 6 -8 -3 -9 -1 -16 6 -16 6 0 9 -4
6 -9 -3 -5 1 -11 9 -15 8 -3 12 -12 9 -21 -4 -8 -1 -15 7 -15 7 0 9 -3 6 -7
-4 -3 1 -15 10 -26 13 -15 14 -18 3 -12 -13 8 -13 7 0 -9 8 -10 15 -24 16 -30
0 -6 2 -17 2 -24 1 -7 6 -10 12 -7 5 3 7 0 4 -8 -3 -8 -1 -18 5 -21 6 -4 8
-13 4 -21 -3 -8 0 -15 7 -15 6 0 9 -4 5 -9 -3 -5 -1 -12 4 -16 6 -3 8 -12 4
-20 -3 -8 0 -15 5 -15 6 0 9 -9 7 -20 -2 -11 0 -20 5 -20 5 0 7 -6 4 -14 -3
-8 -1 -17 5 -20 6 -4 7 -14 4 -23 -4 -10 -2 -14 4 -10 7 5 9 0 6 -12 -3 -10 0
-21 5 -25 5 -3 8 -19 6 -36 -2 -17 0 -28 6 -25 5 3 6 -10 3 -31 -4 -25 -3 -35
4 -31 7 5 10 -9 7 -38 -2 -25 0 -44 4 -41 4 2 7 -85 7 -194 0 -109 -3 -196 -7
-194 -4 3 -6 -10 -6 -28 0 -18 -3 -51 -7 -73 -4 -22 -9 -47 -9 -55 -1 -9 -6
-22 -11 -29 -6 -10 -4 -12 6 -6 12 8 12 6 0 -8 -7 -9 -11 -24 -7 -32 4 -11 2
-14 -6 -9 -7 5 -9 0 -6 -14 4 -12 2 -25 -3 -28 -5 -3 -7 -10 -4 -15 4 -5 1 -9
-5 -9 -7 0 -10 -7 -7 -15 4 -8 2 -17 -4 -21 -6 -3 -8 -12 -5 -20 3 -8 0 -14
-6 -14 -6 0 -9 -3 -5 -6 3 -4 0 -18 -7 -33 -7 -14 -12 -34 -11 -44 2 -9 -1
-15 -6 -11 -8 4 -10 0 -9 -21 0 -3 -7 -19 -15 -35 -9 -17 -13 -36 -9 -42 5 -7
3 -8 -6 -3 -10 6 -12 4 -7 -9 4 -9 3 -15 -2 -12 -4 3 -13 -6 -20 -20 -9 -20
-9 -24 1 -19 7 4 5 0 -6 -9 -10 -8 -15 -20 -11 -25 3 -6 -1 -14 -10 -17 -9 -4
-14 -13 -11 -21 3 -8 2 -11 -4 -8 -5 3 -14 -4 -20 -15 -6 -11 -8 -20 -4 -20 3
0 1 -6 -5 -13 -6 -8 -7 -17 -3 -21 4 -4 0 -6 -8 -4 -9 2 -14 -4 -14 -14 1 -10
-1 -16 -5 -15 -3 1 -7 -2 -8 -7 0 -5 -8 -13 -17 -18 -9 -5 -16 -18 -16 -29 0
-11 -4 -17 -10 -14 -5 3 -10 -1 -10 -9 0 -9 -5 -16 -11 -16 -6 0 -9 -7 -5 -15
3 -8 0 -14 -7 -12 -7 1 -11 -4 -9 -11 1 -6 -4 -11 -10 -10 -7 2 -12 -3 -10
-10 1 -6 -3 -12 -9 -12 -5 0 -7 -5 -3 -12 4 -6 3 -8 -3 -5 -15 9 -36 -19 -27
-35 4 -7 4 -10 0 -6 -10 8 -36 -14 -29 -24 2 -5 -2 -8 -9 -8 -16 0 -48 -35
-48 -52 0 -6 -3 -8 -6 -5 -9 8 -74 -57 -74 -74 0 -7 -3 -10 -6 -6 -9 8 -33
-16 -26 -27 3 -5 1 -6 -5 -3 -14 9 -55 -22 -47 -36 4 -7 4 -9 -1 -5 -4 4 -14
0 -22 -10 -10 -11 -12 -12 -8 -2 4 8 -2 5 -13 -7 -11 -13 -25 -23 -31 -23 -5
0 -13 -5 -17 -12 -5 -7 -3 -8 6 -3 8 5 11 4 6 -3 -4 -6 -12 -9 -19 -7 -7 3
-23 -5 -37 -16 -14 -11 -19 -17 -11 -13 9 5 12 3 7 -5 -4 -6 -12 -9 -17 -6
-12 8 -61 -30 -51 -40 4 -3 2 -6 -3 -5 -25 5 -47 -2 -62 -19 -9 -11 -20 -18
-25 -15 -4 3 -8 0 -8 -5 0 -6 -3 -11 -7 -10 -16 2 -53 -14 -53 -23 0 -5 -4 -7
-9 -4 -5 3 -14 -1 -21 -9 -7 -8 -16 -12 -21 -9 -5 3 -9 1 -9 -5 0 -6 -7 -7
-17 -4 -11 4 -14 3 -9 -5 5 -8 2 -10 -8 -6 -9 3 -16 1 -16 -6 0 -6 -4 -9 -9
-6 -14 9 -42 -5 -35 -16 4 -6 -2 -7 -16 -3 -14 5 -20 3 -16 -3 4 -6 -2 -8 -16
-4 -16 4 -19 2 -13 -9 5 -8 5 -11 0 -7 -4 4 -15 2 -23 -5 -11 -8 -13 -8 -9 0
5 7 0 9 -13 6 -11 -3 -17 -9 -14 -15 3 -5 -5 -6 -20 -2 -16 4 -26 2 -26 -5 0
-6 -7 -8 -15 -5 -8 4 -15 1 -15 -6 0 -6 -5 -8 -10 -5 -6 4 -19 3 -28 -1 -9 -4
-30 -8 -45 -10 -16 -1 -34 -7 -40 -12 -7 -4 -27 -7 -45 -5 -18 1 -31 0 -28 -5
2 -4 -16 -6 -40 -5 -25 1 -43 -1 -40 -5 2 -4 -85 -7 -194 -7 -109 0 -196 3
-194 6 2 4 -15 6 -39 5 -23 -1 -48 2 -54 7 -7 5 -20 7 -28 3 -8 -3 -15 -1 -15
5 0 7 -12 9 -29 7 -17 -2 -27 0 -24 5 3 5 -3 7 -13 6 -11 -2 -25 0 -33 5 -11
7 -12 6 -6 -5 7 -11 6 -12 -7 -2 -8 7 -18 10 -21 6 -4 -3 -7 -1 -7 5 0 7 -3
11 -7 11 -5 -1 -10 0 -13 1 -5 2 -46 9 -67 12 -7 1 -13 6 -13 11 0 5 -7 7 -15
4 -8 -4 -17 -2 -20 4 -4 5 -11 7 -16 4 -5 -4 -9 -1 -9 6 0 7 -3 9 -7 6 -3 -4
-17 0 -30 8 -13 9 -28 13 -33 10 -6 -3 -10 -2 -10 3 0 6 -7 13 -16 16 -10 4
-13 2 -8 -7 4 -6 -2 -4 -13 6 -11 9 -23 14 -26 10 -4 -3 -7 -1 -7 6 0 7 -4 10
-9 6 -5 -3 -12 -1 -16 5 -6 10 -78 44 -82 38 -1 -2 -9 6 -18 17 -9 11 -14 13
-10 5 4 -9 0 -7 -9 4 -8 10 -20 15 -27 10 -8 -5 -10 -3 -4 6 6 10 4 12 -8 7
-9 -3 -19 -1 -23 5 -5 7 -2 8 7 4 8 -4 3 2 -11 13 -14 11 -31 19 -37 16 -7 -2
-12 -1 -10 3 1 4 -3 9 -8 11 -6 2 -16 11 -23 20 -11 13 -12 13 -7 1 4 -8 -1
-6 -10 5 -9 11 -21 19 -26 18 -5 -2 -9 2 -9 8 0 5 -5 7 -12 3 -6 -4 -8 -3 -5
3 4 6 -1 17 -10 24 -14 12 -16 12 -9 -1 4 -9 2 -8 -7 2 -8 10 -18 14 -22 10
-5 -4 -5 -2 -2 4 4 7 0 17 -8 24 -8 7 -15 10 -15 7 0 -3 -49 44 -108 104 -60
60 -113 105 -117 101 -5 -4 -5 -1 -1 6 5 8 -1 21 -16 33 -12 12 -23 24 -23 28
0 11 -32 41 -38 35 -3 -3 -4 3 -4 13 1 10 -3 17 -10 16 -7 -2 -10 4 -7 12 4 8
-1 17 -10 21 -9 3 -13 10 -10 15 3 5 1 9 -5 9 -5 0 -13 9 -16 20 -4 11 -11 17
-17 14 -7 -4 -8 -2 -4 4 4 7 -2 21 -13 33 -11 12 -18 26 -15 31 3 4 0 8 -6 8
-6 0 -8 5 -5 10 3 6 1 10 -4 10 -6 0 -11 5 -11 11 0 7 -8 18 -17 26 -10 8 -12
12 -5 8 10 -5 10 -1 1 19 -7 14 -16 23 -20 20 -5 -3 -6 3 -2 12 4 12 3 15 -5
10 -8 -5 -10 -1 -5 10 4 12 3 15 -5 10 -8 -5 -10 -2 -6 8 4 9 1 16 -6 16 -7 0
-10 7 -7 15 4 8 2 17 -3 20 -6 4 -10 15 -10 26 0 11 -4 17 -10 14 -6 -3 -7 1
-4 9 3 9 1 16 -5 16 -6 0 -10 3 -10 8 1 4 0 10 -1 15 -4 13 -6 21 -14 60 -5
20 -12 37 -17 37 -5 0 -5 7 -2 17 5 11 3 14 -6 8 -10 -5 -11 -2 -6 14 4 13 1
28 -5 36 -7 8 -10 15 -7 15 3 0 2 12 -2 28 l-8 27 77 -2 76 -1 0 398 0 398
-75 -2 c-72 -2 -76 -1 -76 20 0 12 4 20 9 16 5 -3 7 5 4 16 -4 12 -2 22 4 22
6 0 8 9 5 20 -3 13 -1 18 6 13 6 -4 8 0 4 9 -3 9 -3 19 1 22 6 7 13 31 15 58
1 9 4 15 7 13 6 -4 36 85 32 98 -1 4 3 7 9 7 6 0 8 7 5 16 -4 10 -2 13 6 8 7
-5 9 0 6 14 -4 12 -3 20 1 18 3 -2 11 7 18 20 8 18 8 23 0 18 -7 -3 -4 1 7 10
10 8 15 20 10 27 -5 8 -3 10 6 4 10 -6 12 -4 7 9 -5 11 -3 15 5 10 8 -5 9 -2
5 10 -5 11 -3 15 5 10 8 -5 9 -2 5 10 -4 10 -3 15 3 11 11 -7 32 29 23 39 -3
3 -1 6 6 6 8 0 11 7 7 15 -3 8 -2 14 2 12 4 -1 8 3 10 8 2 6 10 14 18 18 8 4
14 15 14 22 0 8 5 15 11 15 6 0 9 7 5 15 -3 8 -2 14 2 12 4 -1 7 2 7 6 0 5 8
13 18 18 9 6 17 14 17 19 0 10 15 29 62 76 13 14 17 27 13 35 -5 8 -4 11 0 6
11 -9 66 43 59 55 -3 5 0 7 8 6 7 -2 12 3 11 9 -2 7 3 12 10 10 6 -1 11 4 10
10 -2 7 0 12 5 10 10 -3 58 46 54 56 -1 5 2 6 7 3 5 -3 15 2 22 11 12 14 12
16 0 8 -10 -5 -12 -4 -7 3 4 7 14 12 22 12 8 0 14 5 14 11 0 5 4 8 9 5 9 -6
26 10 33 29 1 6 7 9 12 7 13 -4 36 19 29 31 -3 5 -2 7 4 4 6 -4 19 1 29 9 10
9 13 12 5 8 -9 -5 -12 -3 -7 5 4 6 12 9 17 6 12 -8 60 30 51 40 -4 5 -1 5 6 1
14 -8 65 28 54 38 -3 4 2 4 12 0 13 -5 17 -4 12 4 -5 8 -1 10 10 5 13 -5 15
-3 9 7 -5 9 -4 11 3 6 15 -9 55 18 44 29 -4 4 1 5 11 2 9 -4 17 -2 17 4 0 6 4
8 9 5 5 -3 20 3 33 14 14 11 28 16 32 13 3 -3 6 0 6 7 0 7 3 10 7 7 3 -4 15 1
26 10 11 10 17 12 13 6 -5 -9 -2 -11 8 -7 9 3 16 10 16 16 0 5 6 8 13 6 6 -1
23 4 37 12 23 12 38 17 78 22 6 1 12 6 12 11 0 5 7 7 15 3 8 -3 15 -2 15 3 0
7 15 11 53 12 9 0 15 4 13 8 -3 5 6 6 21 3 17 -3 24 -1 19 6 -4 7 5 9 25 5 20
-3 29 -1 25 6 -4 6 3 8 18 5 14 -2 27 0 30 5 3 4 19 7 36 5 17 -2 29 0 26 4
-2 4 12 6 32 6 21 -1 42 1 49 4 16 10 383 9 383 0z m-1580 -602 c0 -2 -8 -10
-17 -17 -16 -13 -17 -12 -4 4 13 16 21 21 21 13z"/>
<path d="M2245 3611 c0 -201 -1 -372 -3 -378 -2 -7 -8 -11 -12 -8 -5 3 -14 -1
-22 -8 -7 -8 -19 -12 -27 -9 -9 3 -11 0 -6 -8 5 -9 4 -11 -4 -6 -6 4 -18 0
-27 -8 -8 -9 -22 -16 -29 -16 -8 0 -19 -9 -25 -20 -6 -11 -16 -19 -23 -17 -7
1 -11 -4 -10 -10 2 -7 -3 -12 -10 -10 -6 1 -11 -4 -10 -10 2 -7 -3 -12 -10
-10 -6 1 -11 -4 -10 -10 2 -7 -3 -12 -10 -10 -6 1 -11 -4 -9 -11 1 -8 -2 -11
-7 -7 -12 7 -33 -29 -23 -40 4 -5 2 -5 -4 -2 -7 4 -18 -1 -25 -10 -12 -14 -12
-16 1 -9 8 4 7 1 -4 -8 -10 -8 -15 -20 -11 -26 4 -6 1 -9 -7 -8 -7 2 -12 -3
-11 -9 2 -7 -2 -13 -8 -13 -6 0 -9 -9 -6 -20 3 -11 2 -18 -3 -15 -4 3 -11 -2
-14 -11 -4 -10 -2 -13 7 -8 9 5 9 4 0 -6 -10 -11 -91 -13 -386 -13 l-374 0 1
-197 0 -197 373 1 c301 1 373 -2 373 -12 0 -7 4 -10 10 -7 6 4 7 -1 3 -11 -4
-11 -3 -15 5 -10 7 4 10 -1 7 -15 -3 -13 5 -30 19 -44 13 -13 22 -26 19 -29
-8 -8 24 -36 32 -28 5 4 5 1 1 -6 -8 -14 52 -79 68 -74 6 2 8 1 4 -3 -11 -11
24 -44 40 -37 9 3 13 1 9 -5 -8 -12 17 -36 26 -26 4 3 7 0 7 -7 0 -7 3 -11 6
-8 3 4 15 -3 26 -14 11 -11 26 -17 34 -14 8 3 14 2 14 -2 0 -4 10 -12 22 -17
l22 -10 0 -371 0 -371 196 1 195 1 0 369 c1 282 4 371 13 374 7 2 10 8 7 13
-4 5 1 6 9 3 9 -3 16 -1 16 6 0 6 5 8 11 5 6 -4 17 1 25 11 9 11 12 13 9 6 -4
-8 11 -2 34 13 22 15 41 32 41 38 0 6 3 8 6 4 8 -8 33 16 27 26 -2 4 1 7 7 7
7 0 28 16 47 35 19 19 31 35 27 35 -5 0 2 7 14 16 12 8 20 20 17 25 -4 5 -1 9
6 9 7 0 9 3 6 7 -4 3 0 11 9 17 8 6 16 21 17 34 0 12 5 22 10 22 5 0 7 7 4 15
-4 8 -1 17 5 21 6 4 178 8 382 8 l371 1 1 196 1 196 -378 -1 c-209 -1 -375 3
-372 8 3 4 0 12 -7 16 -7 5 -14 21 -16 36 -2 16 -13 37 -26 47 -13 10 -17 16
-10 12 22 -11 13 6 -20 38 -18 17 -26 27 -18 22 15 -8 -75 80 -126 123 -15 13
-33 21 -41 18 -8 -3 -11 -1 -8 4 5 9 -8 16 -60 34 -5 2 -14 4 -20 4 -18 1 -20
40 -19 401 l0 357 -196 1 -196 0 1 -366z m265 -725 c0 -4 7 -5 16 -2 8 3 13 2
10 -3 -7 -11 22 -23 35 -15 5 3 8 0 7 -8 -2 -7 3 -12 10 -10 6 1 11 -4 10 -10
-2 -7 3 -12 10 -10 6 1 11 -4 10 -10 -2 -7 3 -12 10 -10 8 1 11 -2 7 -8 -3 -5
-1 -10 5 -10 6 0 9 -4 5 -9 -3 -5 -1 -12 5 -16 5 -3 10 -15 10 -26 0 -11 3
-18 8 -16 4 3 6 -25 4 -61 -3 -89 -4 -92 -14 -92 -5 0 -7 -4 -4 -9 3 -5 -1
-14 -9 -21 -8 -7 -15 -19 -15 -28 0 -8 -3 -12 -6 -9 -4 3 -19 -7 -34 -23 -15
-16 -30 -26 -34 -23 -3 3 -6 0 -6 -7 0 -7 -3 -10 -6 -7 -4 3 -16 1 -28 -5 -25
-14 -136 -17 -136 -5 0 5 -7 7 -15 3 -8 -3 -15 -1 -15 5 0 6 -7 8 -16 5 -8 -3
-12 -2 -9 4 3 6 1 10 -5 10 -6 0 -21 11 -34 25 -13 13 -26 22 -29 18 -4 -3 -7
1 -7 10 0 9 -5 17 -11 17 -5 0 -7 5 -4 10 3 6 1 10 -5 10 -6 0 -8 5 -5 10 3 6
2 10 -4 10 -6 0 -7 7 -4 17 4 9 2 14 -3 11 -5 -4 -9 22 -9 58 0 35 4 64 9 64
4 0 6 7 3 15 -4 8 -2 17 4 20 5 4 6 11 3 17 -4 7 -2 8 4 4 11 -6 16 6 13 27 0
4 5 6 12 5 6 -2 11 3 10 10 -2 6 3 11 10 10 6 -2 11 3 10 10 -2 6 1 11 6 10 5
-2 17 6 26 17 9 11 14 14 10 8 -4 -9 -1 -11 9 -7 9 3 14 10 11 14 -3 5 4 6 15
3 11 -3 20 -1 20 3 0 5 29 9 65 9 36 0 65 -4 65 -9z"/>
<path d="M3380 4816 c0 -2 7 -6 15 -10 8 -3 15 -1 15 4 0 6 -7 10 -15 10 -8 0
-15 -2 -15 -4z"/>
<path d="M3423 4803 c0 -8 6 -12 14 -9 7 3 13 1 13 -5 0 -6 6 -9 13 -6 6 2 20
-2 29 -10 9 -8 28 -16 41 -17 14 0 23 -5 19 -10 -3 -5 2 -6 12 -3 10 4 15 3
11 -3 -3 -6 -3 -11 2 -12 31 -6 401 -3 391 3 -6 4 -16 5 -20 3 -4 -3 -8 0 -8
6 0 6 -4 8 -10 5 -5 -3 -10 -2 -10 4 0 5 -9 8 -20 6 -11 -2 -18 0 -15 6 6 8
-8 13 -27 10 -5 0 -8 4 -8 11 0 6 -3 8 -7 5 -3 -4 -12 -2 -19 4 -8 6 -21 9
-29 5 -9 -3 -13 -2 -10 4 8 13 16 12 -186 15 -145 2 -176 0 -176 -12z"/>
<path d="M3857 4582 c15 -8 36 -21 45 -29 9 -9 22 -12 30 -7 7 4 10 4 6 0 -8
-10 14 -36 25 -29 4 2 7 -1 7 -7 0 -6 5 -8 12 -4 7 4 8 3 4 -5 -4 -6 0 -14 11
-18 10 -4 24 -14 31 -22 11 -13 12 -13 7 -1 -5 12 -3 11 7 -1 11 -14 39 -16
196 -16 108 1 182 5 182 11 0 5 -3 7 -6 4 -3 -3 -16 4 -29 16 -44 40 -55 47
-65 41 -6 -4 -9 -1 -8 5 2 7 -6 17 -17 23 -11 7 -23 16 -26 21 -4 5 -12 5 -19
1 -9 -5 -11 -4 -6 3 4 7 1 12 -8 12 -9 0 -16 4 -16 8 0 5 -88 8 -196 8 -177 0
-193 -1 -167 -14z"/>
<path d="M4290 4232 c0 -5 10 -18 23 -29 12 -11 28 -29 36 -41 8 -11 18 -19
23 -16 5 3 7 0 6 -8 -2 -7 3 -12 10 -10 8 1 10 -2 7 -8 -4 -6 6 -22 22 -36 15
-13 24 -24 20 -24 -4 0 -3 -6 3 -12 5 -7 19 -24 29 -38 l19 -25 186 -1 c102 0
186 3 186 7 0 4 -8 13 -17 18 -10 6 -14 11 -9 11 5 0 3 7 -4 15 -7 8 -17 12
-23 8 -6 -3 -7 -1 -3 5 4 7 2 12 -5 12 -7 0 -9 3 -6 7 4 3 -5 17 -19 30 -14
12 -22 23 -18 23 3 0 1 7 -6 15 -7 8 -17 12 -24 8 -6 -3 -8 -3 -4 1 8 10 -14
36 -24 29 -4 -2 -5 2 -2 10 3 9 -6 23 -23 35 -25 17 -43 19 -188 18 -88 0
-166 -5 -174 -10 -10 -6 -12 -6 -7 2 4 7 2 12 -3 12 -6 0 -11 -4 -11 -8z"/>
<path d="M4717 3583 c3 -7 10 -10 16 -6 6 3 7 1 3 -6 -9 -15 3 -53 15 -46 5 3
6 -2 2 -11 -4 -10 -2 -15 3 -11 5 3 10 -2 11 -11 1 -9 4 -26 6 -37 3 -11 6
-24 6 -28 1 -5 6 -5 13 -1 7 4 8 3 4 -4 -4 -6 0 -26 7 -44 8 -18 12 -39 9 -47
-3 -8 0 -11 6 -7 6 4 8 -2 4 -16 -3 -14 -1 -19 6 -14 7 4 10 -1 7 -14 -2 -11
1 -20 6 -20 6 0 8 -4 5 -9 -3 -4 77 -8 178 -7 188 0 189 1 176 36 -1 3 -2 8
-1 13 0 4 -3 7 -9 7 -5 0 -7 6 -4 14 3 8 1 17 -5 20 -6 4 -7 14 -4 23 4 10 2
14 -4 10 -7 -5 -9 1 -5 15 4 16 2 19 -8 13 -9 -5 -11 -4 -6 4 4 6 2 18 -4 26
-7 8 -9 15 -5 15 4 0 2 6 -4 13 -6 8 -8 17 -4 20 3 4 0 7 -7 7 -7 0 -11 3 -7
6 3 4 -2 23 -13 44 -11 21 -16 40 -13 44 4 3 1 6 -6 6 -7 0 -10 4 -7 8 3 5
-80 9 -183 8 -151 0 -188 -2 -184 -13z"/>
<path d="M4914 2659 l0 -196 181 0 181 0 2 91 c1 50 2 97 2 104 0 6 -1 54 -2
106 l-2 93 -181 0 -181 -1 0 -197z"/>
<path d="M4844 2064 c3 -7 1 -14 -5 -16 -10 -3 -21 -38 -23 -75 0 -11 -5 -19
-10 -15 -5 3 -7 -2 -3 -11 3 -9 2 -19 -4 -22 -5 -4 -7 -11 -4 -16 4 -5 1 -9
-5 -9 -7 0 -9 -7 -6 -16 3 -8 2 -12 -4 -9 -6 3 -11 -4 -12 -17 0 -13 -2 -29
-2 -36 -1 -7 -7 -17 -15 -21 -8 -5 -10 -14 -6 -21 6 -9 4 -11 -5 -5 -9 6 -10
2 -5 -15 4 -14 3 -20 -3 -16 -5 3 -12 0 -15 -7 -4 -11 30 -14 184 -13 195 0
196 0 190 39 0 4 3 7 8 7 7 0 12 11 21 47 0 2 9 23 20 49 11 25 18 50 15 54
-3 5 0 10 5 12 10 3 22 44 24 80 0 9 5 14 10 11 5 -4 7 1 3 10 -3 10 -3 17 2
17 4 0 8 6 8 14 0 10 -36 13 -184 13 -144 0 -183 -3 -179 -13z"/>
<path d="M4472 1312 c-12 -13 -19 -28 -16 -33 3 -5 2 -8 -3 -7 -4 2 -10 -1
-13 -7 -2 -5 -15 -20 -28 -32 -13 -12 -21 -27 -17 -33 3 -6 1 -9 -7 -8 -7 2
-12 -4 -10 -12 2 -8 0 -12 -4 -7 -9 8 -44 -21 -44 -37 0 -6 -9 -17 -20 -24
-11 -7 -20 -16 -20 -21 0 -4 83 -8 184 -7 181 1 185 1 205 25 11 13 18 29 14
35 -3 6 -3 8 2 4 10 -10 76 62 68 75 -3 6 -1 7 4 4 15 -9 36 19 27 35 -4 7 -4
10 1 6 8 -7 43 22 37 30 -2 3 3 9 12 14 9 5 16 12 16 16 0 5 -83 8 -183 8
-182 1 -184 0 -205 -24z"/>
<path d="M4044 861 c-13 -13 -15 -13 -8 -1 7 13 5 13 -9 1 -9 -7 -14 -18 -10
-24 3 -6 1 -7 -6 -3 -13 9 -43 -18 -33 -29 4 -5 2 -5 -5 -2 -6 4 -18 0 -26 -8
-9 -8 -20 -15 -25 -15 -6 0 -12 -4 -14 -9 -1 -4 -20 -17 -42 -28 l-39 -20 199
1 c150 1 198 4 197 13 -2 7 4 10 12 7 8 -4 15 -1 15 6 0 6 4 9 9 6 5 -3 12 1
15 10 3 8 10 13 15 9 5 -3 17 5 26 17 8 13 19 23 23 23 4 0 6 4 4 10 -2 6 0 7
4 3 7 -8 64 28 64 41 0 4 -78 8 -174 8 -147 0 -177 -3 -192 -16z"/>
<path d="M3575 583 c-10 -9 -28 -18 -42 -19 -14 -2 -33 -9 -42 -17 -9 -8 -22
-12 -30 -9 -8 2 -11 0 -7 -6 3 -6 -1 -8 -11 -6 -22 5 -51 -12 -40 -23 5 -4 12
-1 17 7 6 8 10 10 10 4 0 -7 57 -10 170 -11 94 0 170 4 170 9 0 4 3 7 8 7 23
-4 42 2 37 12 -4 6 -1 10 6 8 29 -3 50 1 44 11 -3 6 1 7 9 4 9 -3 16 -1 16 6
0 6 4 9 9 5 5 -3 12 -1 16 5 4 6 10 8 13 6 4 -2 18 1 30 8 19 10 -9 12 -160
12 -101 -1 -189 -5 -197 -10 -10 -6 -12 -6 -7 2 10 17 0 15 -19 -5z"/>
</g>
</svg>
